<svg width="42" height="38" viewBox="0 0 42 38" fill="none" xmlns="http://www.w3.org/2000/svg">
<path d="M41.0952 6.3592C40.2191 4.26768 38.7494 2.64878 37.0222 1.59068C35.2914 0.529051 33.3032 0 31.2899 0C28.869 0 26.3944 0.765361 24.2738 2.3631C23.1438 3.22016 22.1282 4.32411 21.2914 5.65027C20.4153 4.35233 19.3604 3.26954 18.1911 2.44069C15.9954 0.874698 13.4457 0.123445 10.9533 0.123445C8.22479 0.123445 5.5285 1.01931 3.44728 2.88157C2.41024 3.80917 1.53413 4.98014 0.929785 6.37331C0.329019 7.75237 -0.00354744 9.34305 2.8542e-05 11.0642C2.8542e-05 12.7642 0.361203 14.4396 0.944089 16.0585C1.9704 18.8907 3.68687 21.5959 5.65724 24.1177C8.61458 27.8951 12.1691 31.2493 14.9977 33.69C17.8227 36.1236 19.9254 37.6332 19.9576 37.6614C20.587 38.1129 21.413 38.1129 22.046 37.6614C22.0925 37.6226 26.9451 34.1415 31.8549 29.1754C34.3116 26.6854 36.7898 23.8285 38.6993 20.7847C39.6541 19.2575 40.4695 17.6844 41.0559 16.0585C41.6388 14.436 42 12.7642 42 11.0642C42.0035 9.33952 41.6853 7.74884 41.0952 6.3592Z" fill="#E5218F"/>
</svg>
